PathFileType	4	(X/Y/Z)	c:\Git\powerlifing_model_clean\simulations\HC835B\Session1\HC835B_OGR_0001\marker_experimental.trc
DataRate	CameraRate	NumFrames	NumMarkers	Units	OrigDataRate	OrigDataStartFrame	OrigNumFrames
240.000000	240.000000	5	38	mm	240.000000	106	213
Frame#	Time	RPSI			LPSI			RASI			LASI			RTH1			RTH2			RTH3			RTH4			RSK1			RSK2			RSK3			RSK4			RCAL1			RCAL2			RCAL3			RST			RPT			RTN			RFMB			RSMB			RVMB			RFMH			RSMH			RVMH			RPM			LTH1			LTH2			LTH3			LTH4			LSK1			LSK2			LSK3			LSK4			LCAL1			LCAL2			LCAL3			LFMH			LVMH			
		X1	Y1	Z1	X2	Y2	Z2	X3	Y3	Z3	X4	Y4	Z4	X5	Y5	Z5	X6	Y6	Z6	X7	Y7	Z7	X8	Y8	Z8	X9	Y9	Z9	X10	Y10	Z10	X11	Y11	Z11	X12	Y12	Z12	X13	Y13	Z13	X14	Y14	Z14	X15	Y15	Z15	X16	Y16	Z16	X17	Y17	Z17	X18	Y18	Z18	X19	Y19	Z19	X20	Y20	Z20	X21	Y21	Z21	X22	Y22	Z22	X23	Y23	Z23	X24	Y24	Z24	X25	Y25	Z25	X26	Y26	Z26	X27	Y27	Z27	X28	Y28	Z28	X29	Y29	Z29	X30	Y30	Z30	X31	Y31	Z31	X32	Y32	Z32	X33	Y33	Z33	X34	Y34	Z34	X35	Y35	Z35	X36	Y36	Z36	X37	Y37	Z37	X38	Y38	Z38	

107	0.4416666666666667	521.7611083984376	1172.122314453125	-1128.128051757813	413.9790649414064	1165.40478515625	-1110.683959960938	567.0205688476564	1079.141479492188	-1312.212280273438	338.2880249023438	1091.877075195313	-1299.282348632813	636.6381835937501	799.7655029296877	-1177.893920898438	614.1921997070314	773.9398193359377	-1228.159912109375	620.5673217773439	716.7952880859376	-1175.070556640625	589.3758544921876	692.9921264648439	-1218.719482421875	612.5969848632814	532.5669555664064	-811.1921386718752	617.3990478515626	471.2965393066407	-818.692565917969	615.6302490234376	497.9750976562501	-763.8598022460939	608.1094970703126	438.952606201172	-770.4857177734377	567.2947387695314	507.8950500488282	-627.8033447265626	529.4042358398439	500.2983703613282	-597.5220947265626	592.5853881835939	506.9309997558595	-586.1091918945314	523.6403198242189	428.8655395507814	-613.4049682617189	621.1419067382814	448.6696166992189	-591.1864624023439	543.8811645507814	376.0690917968751	-627.9386596679689	544.9805908203126	346.3041687011719	-608.5957641601564	599.2442016601564	337.5062561035157	-625.1074218750001	629.1075439453126	405.6821289062501	-562.6639404296876	541.4544067382814	292.1739807128907	-575.6808471679689	596.6101074218751	281.5049133300782	-582.8920288085939	644.1242065429689	328.1527709960938	-548.9520874023439	587.9135742187501	224.9020385742188	-577.1354980468751	266.4649047851563	807.221374511719	-1273.864624023438	273.6714782714844	816.591003417969	-1333.5078125	278.6050109863282	736.3437500000001	-1320.724365234375	302.4990844726563	746.6585693359376	-1376.81640625	328.2445373535157	293.7643127441407	-1361.344848632813	322.9857482910157	284.6819763183594	-1413.956176757813	333.6296691894532	243.2002563476563	-1388.053100585938	342.2356872558594	238.7882232666016	-1444.183837890625	398.2250976562501	83.43703460693361	-1364.96240234375	378.1409912109376	41.22294235229493	-1376.757568359375	434.8835449218751	55.7797088623047	-1377.184936523438	447.9956665039064	111.0841293334961	-1589.259399414063	346.1660766601563	54.42113494873048	-1566.398559570313	
108	0.4458333333333333	521.9882812500001	1167.789428710938	-1141.218139648438	414.1474914550782	1160.803588867188	-1123.776123046875	566.9921875000001	1075.827026367188	-1325.836303710938	338.5369567871094	1088.264038085938	-1312.787353515625	636.8954467773439	794.7456054687502	-1194.056396484375	614.4783325195314	769.6325683593752	-1244.697998046875	620.7383422851564	711.7475585937501	-1192.388671875	589.5134887695314	688.6222534179689	-1236.41015625	612.7503662109376	533.9482421875001	-831.1367187500002	617.5528564453126	472.5180664062501	-837.111755371094	615.9284057617189	500.5303344726564	-783.019470214844	608.3836059570314	441.3802795410157	-788.0966796875002	567.7933349609376	514.2752075195314	-648.1909179687501	530.0559082031251	507.3781127929689	-617.0814208984376	593.2453002929689	514.8883666992189	-606.4771118164064	524.1958007812501	436.2772216796876	-630.4896850585939	621.8793334960939	456.5423278808595	-609.6308593750001	551.3761596679689	369.1418457031251	-654.7576904296876	545.7934570312501	353.4331970214844	-622.8171386718751	600.0477905273439	344.1691894531251	-638.7616577148439	629.9542236328126	414.6241149902345	-579.5332641601564	542.4520874023439	300.6049194335938	-587.9906616210939	597.6135253906251	289.7437438964844	-595.0402832031251	645.2135620117189	337.7413940429688	-562.9988403320314	589.9534912109376	233.5880126953126	-587.5611572265626	267.5582275390626	804.7889404296877	-1288.064819335938	273.7308349609376	814.1772460937502	-1347.801513671875	279.0284423828126	733.8800659179689	-1335.088623046875	302.2091979980469	744.3572387695314	-1391.484985351563	329.0779724121094	290.4712524414063	-1371.653442382813	323.5214843750001	280.6157531738282	-1424.08056640625	334.3945312500001	239.5939636230469	-1397.633422851563	342.7364196777344	234.4001464843751	-1453.7236328125	399.7334594726564	83.00319671630861	-1372.774536132813	379.1340026855469	40.75611114501954	-1383.055908203125	436.0343627929689	54.51769256591798	-1384.078369140625	449.3386535644532	105.1160659790039	-1596.93115234375	347.6340637207032	48.61312484741212	-1573.10205078125	
109	0.45	522.2515258789064	1163.219604492188	-1154.336669921875	414.4664611816407	1156.1337890625	-1136.71044921875	567.0012207031251	1072.405517578125	-1339.4501953125	338.6958923339844	1084.496337890625	-1326.174560546875	637.2319946289064	789.775573730469	-1210.091796875	614.8861083984376	765.3152465820314	-1261.132202148438	621.0052490234376	706.6946411132814	-1209.597045898438	589.8792724609376	684.2561645507814	-1253.980224609375	612.9354858398439	534.9941406250001	-851.477478027344	617.7147216796876	473.4621582031251	-855.9774169921877	616.3510742187501	502.8914489746095	-802.5427246093752	608.4522094726564	443.4172363281251	-806.241638183594	568.2747802734376	520.2687377929689	-669.1329956054689	530.3333129882814	514.2924804687501	-637.6406860351564	593.6993408203126	522.2752685546876	-627.6124267578126	524.7777099609376	442.5065307617189	-648.5050659179689	622.5010375976564	463.9608764648439	-628.6926269531251	545.7902221679689	388.5908813476564	-659.8741455078126	546.4140014648439	360.6235961914063	-637.5441284179689	600.8789672851564	350.6708679199219	-653.4942016601564	630.9025268554689	423.3386230468751	-596.9055786132814	543.4440917968751	308.9454040527344	-600.9869995117189	598.6570434570314	297.8819274902344	-607.7244262695314	646.0619506835939	347.0689697265626	-577.5438232421876	591.1473999023439	241.9966888427735	-598.1958007812501	268.7575988769532	802.1750488281252	-1302.363037109375	273.7581176757813	811.578308105469	-1362.181396484375	279.3079223632813	731.3166503906251	-1349.35009765625	301.6255493164063	741.5485229492189	-1406.404174804688	329.8673706054688	287.1165161132813	-1381.346557617188	323.8550720214844	276.4000854492188	-1433.668823242188	335.0682067871094	235.812484741211	-1406.701049804688	343.1437683105469	229.7273406982422	-1462.6640625	401.5486145019532	83.63903045654298	-1379.391479492188	380.1840515136719	41.32902908325196	-1387.511352539063	437.2623596191407	53.9866409301758	-1389.299194335938	451.2259826660157	98.41108703613284	-1603.3525390625	349.0835266113282	42.02881622314454	-1577.596801757813	
110	0.4541666666666667	522.6051635742189	1158.377197265625	-1167.354614257813	414.8754882812501	1151.281005859375	-1149.629760742188	567.0479125976564	1068.726928710938	-1353.0224609375	338.7691955566407	1080.67236328125	-1339.512939453125	637.5175170898439	784.7141723632815	-1226.022338867188	615.4906616210939	760.9924316406251	-1277.4912109375	621.3595581054689	701.6481933593751	-1226.7998046875	590.1715698242189	679.8760986328126	-1271.547241210938	613.1632690429689	535.7965698242189	-872.1566162109377	617.9587402343751	474.1203002929689	-875.1736450195315	616.6787109375001	504.8312377929689	-822.4462890625002	609.0120239257814	445.4286193847657	-824.6472167968752	568.5071411132814	525.6730346679689	-690.6164550781251	530.5266113281251	520.7789306640626	-658.9840698242189	593.8543090820314	529.2436523437501	-649.2551269531251	525.4484252929689	448.4383850097657	-667.3857421875001	622.7734375000001	471.065643310547	-648.0183105468751	546.5470581054689	394.0613708496095	-676.7166748046876	547.4712524414064	366.8274230957032	-653.3922729492189	601.7074584960939	356.8037414550782	-668.7822875976564	631.5136108398439	431.7261352539064	-614.8520507812501	544.3809204101564	316.5881958007813	-614.9545898437501	599.6563720703126	305.8383178710938	-621.1022338867189	646.8266601562501	356.2262573242188	-592.6466064453126	592.5025024414064	250.3956451416016	-609.3905029296876	269.8260803222657	799.3794555664065	-1316.81103515625	273.7722473144532	808.762145996094	-1376.71484375	279.6879577636719	728.4362182617189	-1364.024536132813	300.7232055664063	738.6828002929689	-1421.427368164063	330.5962524414063	283.7847290039063	-1390.778564453125	324.3094482421876	272.0989379882813	-1442.8193359375	335.7315368652344	231.9429016113282	-1415.22509765625	343.6962280273438	225.018295288086	-1471.162719726563	404.270477294922	84.04245758056642	-1384.859497070313	381.1919860839844	42.18443679809571	-1390.061279296875	439.1252441406251	53.07360839843751	-1393.28759765625	452.9923095703126	90.28358459472658	-1608.980224609375	350.2746887207032	35.26818084716798	-1580.99365234375	
111	0.4583333333333333	522.9791259765626	1153.31787109375	-1180.215698242188	415.1509704589845	1146.180786132813	-1162.598754882813	567.1705322265626	1064.94287109375	-1366.568359375	338.6687927246094	1076.90478515625	-1353.121459960938	637.8226318359376	779.6287231445315	-1241.98974609375	616.1274414062501	756.5704345703126	-1293.889526367188	621.7720336914064	696.5158691406251	-1243.93798828125	590.8244628906251	675.4190063476564	-1289.161254882813	613.3861694335939	536.3374023437501	-893.1077880859377	618.2203979492189	474.6451416015626	-894.712341308594	617.0798950195314	506.5825500488282	-842.7094726562502	609.0679931640626	446.9905395507814	-843.6285400390627	568.5775756835939	530.5612792968751	-712.5563964843751	530.5859985351564	526.5621948242189	-680.9555053710939	593.9488525390626	535.9277343750001	-671.1778564453126	525.8776245117189	453.9614257812501	-686.6618041992189	622.9823608398439	477.7460937500001	-667.8909301757814	546.8413085937501	399.5303649902345	-693.5397338867189	548.2297363281251	373.0068054199219	-669.9630126953126	602.9240112304689	362.8132629394532	-684.6318969726564	631.8497314453126	439.7422790527345	-633.3411254882814	545.0983276367189	324.0262451171876	-629.3080444335939	600.6525268554689	313.5046081542969	-635.1537475585939	647.2079467773439	365.0934448242188	-608.2110595703126	593.9351196289064	258.6874084472657	-621.1987915039064	270.9213256835938	796.147155761719	-1331.447021484375	273.5403747558594	805.872741699219	-1391.1376953125	279.6264343261719	725.2855224609376	-1378.726196289063	299.6504821777344	735.5953369140626	-1436.590087890625	333.6584167480469	279.6004638671876	-1400.727905273438	324.7979736328126	267.5728454589844	-1451.560180664063	336.4056091308594	228.0587615966797	-1423.221435546875	344.7947082519532	220.2481842041016	-1478.962646484375	408.3213195800782	84.0197219848633	-1388.598022460938	383.0211486816407	42.03643035888673	-1392.395385742188	441.5340270996095	51.07280731201173	-1396.167236328125	454.8645629882814	81.00588226318361	-1613.908203125	350.5393676757813	31.96324729919434	-1584.266845703125	
